<?xml version="1.0" encoding="UTF-8" standalone="no"?>
<svg
   version="1.1"
   width="224.55409pt"
   height="30.090164pt"
   id="svg60"
   viewBox="0 0 224.55409 30.090162"
   sodipodi:docname="migratorydata.svg"
   inkscape:version="1.3 (0e150ed, 2023-07-21)"
   xml:space="preserve"
   inkscape:export-filename="migratorydata.png"
   inkscape:export-xdpi="1113.6494"
   inkscape:export-ydpi="1113.6494"
   xmlns:inkscape="http://www.inkscape.org/namespaces/inkscape"
   xmlns:sodipodi="http://sodipodi.sourceforge.net/DTD/sodipodi-0.dtd"
   xmlns="http://www.w3.org/2000/svg"
   xmlns:svg="http://www.w3.org/2000/svg"><defs
     id="defs60"><rect
       x="5.5265179"
       y="87.871628"
       width="137.05763"
       height="40.896233"
       id="rect8" /><rect
       x="-5.5265179"
       y="-22.658724"
       width="331.59106"
       height="74.607986"
       id="rect7" /><rect
       x="84.938179"
       y="82.042557"
       width="29.921404"
       height="37.96479"
       id="rect6" /><rect
       x="82.835121"
       y="86.476227"
       width="19.115799"
       height="59.167946"
       id="rect5" /><rect
       x="-7.8626375"
       y="-25.684616"
       width="151.48682"
       height="131.04396"
       id="rect4" /><rect
       x="-11.007693"
       y="-30.402199"
       width="147.29341"
       height="127.8989"
       id="rect3" /><rect
       x="-10.765765"
       y="-51.436436"
       width="962.93793"
       height="188.99899"
       id="rect2" /><rect
       x="253.59358"
       y="-72.967964"
       width="522.73773"
       height="193.78378"
       id="rect1" /><rect
       x="89.876801"
       y="20.253927"
       width="600.02258"
       height="336.72153"
       id="rect61" /><rect
       x="89.876801"
       y="20.253927"
       width="600.02258"
       height="336.72153"
       id="rect61-0" /></defs><sodipodi:namedview
     id="namedview60"
     pagecolor="#ffffff"
     bordercolor="#000000"
     borderopacity="0.25"
     inkscape:showpageshadow="2"
     inkscape:pageopacity="0.0"
     inkscape:pagecheckerboard="0"
     inkscape:deskcolor="#d1d1d1"
     inkscape:document-units="pt"
     inkscape:zoom="2.9366593"
     inkscape:cx="152.04351"
     inkscape:cy="48.694787"
     inkscape:window-width="1728"
     inkscape:window-height="1027"
     inkscape:window-x="17"
     inkscape:window-y="25"
     inkscape:window-maximized="0"
     inkscape:current-layer="Layer1000-2"
     showgrid="false"
     showguides="true" /><g
     id="Layer1000-2"
     transform="translate(-977.86976,-277.47931)"
     style="display:inline"><path
       d="m 982.7475,281.16254 c 0,0 7.50421,-3.06039 14.6332,-3.58505 7.129,-0.52464 17.5277,1.22417 17.5277,1.22417 0,0 -5.789,7.08264 -10.7739,11.5421 -4.98494,4.45943 -10.23789,8.21936 -13.98999,10.40536 -3.7521,2.186 -12.27475,6.82035 -12.27475,6.82035 0,0 6.59298,-4.98409 10.02349,-7.69473 3.43049,-2.71066 8.04021,-6.73289 10.88111,-9.70586 2.84084,-2.97296 6.59294,-8.13193 6.59294,-8.13193 0,0 -2.3048,-1.04929 -8.4154,-1.22416 -6.11058,-0.17488 -14.2044,0.34975 -14.2044,0.34975 z"
       style="fill:#0b71f1;fill-opacity:1;fill-rule:evenodd;stroke-width:0.22763"
       id="path5-0" /><path
       d="m 1002.5938,285.75145 c 0,0 4.5306,-1.19003 8.8692,-1.25265 4.3387,-0.0626 7.871,0.62632 8.8693,0.87685 0.9983,0.25056 2.4189,0.68899 2.4189,0.68899 0,0 -2.2269,2.81851 -5.9513,5.76229 -3.7243,2.94381 -6.0664,4.5723 -10.4434,6.88974 -4.3771,2.31744 -7.52545,3.38223 -7.52545,3.38223 0,0 4.79935,-2.69324 9.75235,-6.63919 4.953,-3.94593 6.6423,-5.95023 7.3718,-6.76445 0.7295,-0.81424 0.9215,-1.19004 0.9215,-1.19004 0,0 -2.2269,-0.9395 -6.6423,-1.31531 -4.4154,-0.3758 -7.6406,-0.43846 -7.6406,-0.43846 z"
       style="fill:#0b71f1;fill-opacity:1;fill-rule:evenodd;stroke-width:0.22763"
       id="path6-5" /><path
       d="m 1013.3647,291.28942 c 0,0 4.0679,-0.31003 7.0399,0.34441 2.972,0.65444 5.4802,1.99778 5.4802,1.99778 0,0 -2.5082,2.30771 -4.8267,3.54777 -2.3186,1.24007 -4.3421,2.17002 -6.8081,2.96227 -2.4661,0.79222 -4.2999,1.06781 -4.2999,1.06781 0,0 3.0141,-1.17117 5.9439,-2.65229 2.9298,-1.48111 4.4052,-2.82445 5.2062,-3.51334 0.801,-0.6889 1.0117,-1.17108 1.0117,-1.17108 0,0 -0.8181,-0.98519 -4.6792,-1.79111 -3.8611,-0.80591 -4.068,-0.79222 -4.068,-0.79222 z"
       style="fill:#0b71f1;fill-opacity:1;fill-rule:evenodd;stroke-width:0.22763"
       id="path7-2" /><path
       style="font-weight:bold;font-size:24px;font-family:HandelGothicEF;-inkscape-font-specification:'HandelGothicEF, Bold';font-variation-settings:'wght' 700;opacity:0.953271;fill:#0b71f1;stroke-width:0.75"
       d="m 1053.3843,297.76465 v -16.008 h -4.992 l -4.176,12.504 -3.984,-12.504 h -4.992 v 16.008 h 3.24 v -12.024 l 3.96,12.024 h 3.504 l 4.176,-12.024 v 12.024 z m 6.4319,-12.888 v -3.12 h -3.216 v 3.12 z m 0,12.888 v -11.688 h -3.216 v 11.688 z m 14.376,-0.096 v -11.592 h -6 c -1.416,0 -2.616,0.168 -3.792,1.008 -1.584,1.128 -2.136,2.952 -2.136,4.824 0,1.68 0.48,3.384 1.752,4.56 1.176,1.08 2.448,1.296 4.008,1.296 h 2.952 c 0,1.392 -0.312,1.656 -1.728,1.656 h -5.952 v 2.496 h 6.384 c 2.712,0 4.104,-0.624 4.44,-3.48 0.024,-0.24 0.072,-0.504 0.072,-0.768 z m -3.216,-2.4 h -2.496 c -2.088,0 -2.952,-1.344 -2.952,-3.312 0,-1.92 0.648,-3.384 2.784,-3.384 h 2.664 z m 15.696,-3.912 v -1.128 c 0,-1.152 -0.048,-2.424 -0.96,-3.24 -0.984,-0.888 -2.328,-0.912 -3.6,-0.912 h -4.752 v 11.688 h 3.216 v -9.192 h 0.936 c 2.112,0 2.064,1.008 2.064,2.784 z m 12.8879,6.408 v -6.576 c 0,-0.816 -0.024,-1.584 -0.264,-2.376 -0.624,-1.992 -2.112,-2.664 -4.08,-2.712 -0.432,0 -0.888,-0.024 -1.32,-0.024 h -5.424 v 2.496 h 5.424 c 1.488,0 2.448,0.216 2.448,1.896 v 0.192 h -3.936 c -1.008,0 -2.544,0.024 -3.408,0.648 -0.936,0.696 -1.392,1.872 -1.392,3 0,1.44 0.792,2.88 2.256,3.264 0.816,0.216 1.728,0.192 2.592,0.192 z m -3.216,-2.496 h -3.72 c -0.792,0 -1.728,-0.024 -1.728,-1.032 0,-0.72 0.528,-1.08 1.2,-1.08 h 4.248 z m 13.248,2.496 v -2.496 c -0.792,0 -2.16,0.192 -2.712,-0.576 -0.312,-0.432 -0.264,-1.368 -0.264,-1.872 v -4.248 h 2.976 v -2.496 h -2.976 v -4.32 h -3.216 v 4.32 h -2.04 v 2.496 h 2.04 v 4.8 c 0,0.792 0.024,1.584 0.288,2.352 0.6,1.608 1.992,2.04 3.576,2.04 z m 13.56,-5.688 c 0,-3.912 -2.328,-6.168 -6.216,-6.168 -3.6,0 -6.168,2.232 -6.168,5.904 0,3.888 2.256,6.12 6.144,6.12 3.648,0 6.24,-2.088 6.24,-5.856 z m -3.288,-0.168 c 0,1.944 -0.648,3.576 -2.856,3.576 -2.184,0 -2.952,-1.488 -2.952,-3.48 0,-2.04 0.6,-3.648 2.904,-3.648 2.208,0 2.904,1.584 2.904,3.552 z m 14.9759,-0.552 v -1.128 c 0,-1.152 -0.048,-2.424 -0.96,-3.24 -0.984,-0.888 -2.328,-0.912 -3.6,-0.912 h -4.752 v 11.688 h 3.216 v -9.192 h 0.936 c 2.112,0 2.064,1.008 2.064,2.784 z m 12.432,6.168 v -11.448 h -3.216 v 9.192 h -2.664 c -0.744,0 -1.296,-0.216 -1.512,-0.984 -0.168,-0.624 -0.168,-1.368 -0.168,-1.992 v -6.216 h -3.216 v 6.744 c 0,0.768 0,1.56 0.24,2.304 0.552,1.728 1.896,2.52 3.648,2.616 1.224,0.072 2.448,0.024 3.672,0.024 -0.024,0.144 -0.048,0.288 -0.048,0.432 -0.048,0.672 -0.144,1.008 -0.864,1.152 -0.312,0.048 -0.6,0.072 -0.912,0.072 h -5.736 v 2.496 h 5.736 c 1.416,0 2.88,-0.096 3.936,-1.176 0.888,-0.888 1.104,-1.992 1.104,-3.216 z m 18.024,-7.728 c 0,-1.584 -0.336,-3.648 -1.08,-5.064 -1.344,-2.592 -4.32,-2.976 -6.936,-2.976 h -6.792 v 16.008 h 6.792 c 1.608,0 3.288,0.048 4.752,-0.672 0.984,-0.48 1.776,-1.2 2.256,-2.208 0.696,-1.416 1.008,-3.528 1.008,-5.088 z m -3.768,-0.024 c 0,1.392 -0.36,3.888 -1.752,4.632 -0.672,0.36 -1.728,0.504 -2.496,0.504 h -3.384 v -10.296 h 3.384 c 1.344,0 2.592,0.192 3.36,1.416 0.648,1.032 0.888,2.544 0.888,3.744 z m 17.3999,7.992 v -6.576 c 0,-0.816 -0.024,-1.584 -0.264,-2.376 -0.624,-1.992 -2.112,-2.664 -4.08,-2.712 -0.432,0 -0.888,-0.024 -1.32,-0.024 h -5.424 v 2.496 h 5.424 c 1.488,0 2.448,0.216 2.448,1.896 v 0.192 h -3.936 c -1.008,0 -2.544,0.024 -3.408,0.648 -0.936,0.696 -1.392,1.872 -1.392,3 0,1.44 0.792,2.88 2.256,3.264 0.816,0.216 1.728,0.192 2.592,0.192 z m -3.216,-2.496 h -3.72 c -0.792,0 -1.728,-0.024 -1.728,-1.032 0,-0.72 0.528,-1.08 1.2,-1.08 h 4.248 z m 13.248,2.496 v -2.496 c -0.792,0 -2.16,0.192 -2.712,-0.576 -0.312,-0.432 -0.264,-1.368 -0.264,-1.872 v -4.248 h 2.976 v -2.496 h -2.976 v -4.32 h -3.216 v 4.32 h -2.04 v 2.496 h 2.04 v 4.8 c 0,0.792 0.024,1.584 0.288,2.352 0.6,1.608 1.992,2.04 3.576,2.04 z m 13.4639,0 v -6.576 c 0,-0.816 -0.024,-1.584 -0.264,-2.376 -0.624,-1.992 -2.112,-2.664 -4.08,-2.712 -0.432,0 -0.888,-0.024 -1.32,-0.024 h -5.424 v 2.496 h 5.424 c 1.488,0 2.448,0.216 2.448,1.896 v 0.192 h -3.936 c -1.008,0 -2.544,0.024 -3.408,0.648 -0.936,0.696 -1.392,1.872 -1.392,3 0,1.44 0.792,2.88 2.256,3.264 0.816,0.216 1.728,0.192 2.592,0.192 z m -3.216,-2.496 h -3.72 c -0.792,0 -1.728,-0.024 -1.728,-1.032 0,-0.72 0.528,-1.08 1.2,-1.08 h 4.248 z"
       id="text60-7"
       aria-label="MigratoryData" /></g></svg>
